# xmcd CD database file
# Copyright (C) 1995-1998 Ti Kan
#
# Track frame offsets:
#	150
#	11204
#	28424
#	40837
#	55551
#	67440
#	92696
#	111327
#	122168
#	138809
#	153104
#	165537
#	190800
#	203602
#
# Disc length: 2870 seconds
#
# Revision: 1
# Processed by: cddbd v1.4b41PL1 Copyright (c) Steve Scherf et al.
# Submitted via: CDex 1.30
#
DISCID=be0b340e
DTITLE=Prickly Pair - Cactus Dance
DYEAR=1998
DGENRE=Country
TTITLE0=Cactus Dance
TTITLE1=Wide Open Wyoming
TTITLE2=Cowgirl Cattle Call
TTITLE3=Lonesome On The Range
TTITLE4=Range Of The Buffalo/Garyowen
TTITLE5=Midnight On The Water/Kiss Me Waltz/Ookpik Waltz
TTITLE6=An Old Puncher's Prayer
TTITLE7=The Skybald Paint
TTITLE8=Billy Gray
TTITLE9=Colorado Song
TTITLE10=Give Me Wings
TTITLE11=Ballad Of The Drifter
TTITLE12=Only Lonely For You
TTITLE13=The Blood Trail
EXTD=\n\nYEAR: 1998  ID3G:   2
EXTT0=
EXTT1=
EXTT2=
EXTT3=
EXTT4=
EXTT5=
EXTT6=
EXTT7=
EXTT8=
EXTT9=
EXTT10=
EXTT11=
EXTT12=
EXTT13=
PLAYORDER=
